<?xml version="1.0" standalone="no"?>
<!DOCTYPE svg PUBLIC "-//W3C//DTD SVG 20010904//EN"
 "http://www.w3.org/TR/2001/REC-SVG-20010904/DTD/svg10.dtd">
<svg version="1.0" xmlns="http://www.w3.org/2000/svg"
 width="1176.000000pt" height="1176.000000pt" viewBox="0 0 1176.000000 1176.000000"
 preserveAspectRatio="xMidYMid meet">
<metadata>
Created by potrace 1.11, written by Peter Selinger 2001-2013
</metadata>
<g transform="translate(0.000000,1176.000000) scale(0.100000,-0.100000)"
fill="#000000" stroke="none">
<path d="M3779 9376 c-2 -2 -43 -7 -90 -10 -47 -4 -95 -8 -106 -10 -11 -3 -38
-7 -59 -11 -22 -3 -52 -8 -69 -11 -16 -3 -41 -7 -55 -9 -29 -5 -50 -9 -137
-29 -10 -2 -43 -11 -74 -20 -31 -9 -65 -18 -75 -20 -33 -7 -246 -83 -319 -113
-83 -35 -268 -124 -275 -133 -3 -3 -20 -12 -37 -19 -18 -8 -33 -17 -33 -22 0
-4 -10 -11 -22 -15 -27 -8 -191 -114 -196 -126 -2 -4 -8 -8 -14 -8 -6 0 -32
-17 -58 -37 -26 -21 -60 -47 -75 -57 -26 -20 -46 -36 -97 -82 -15 -13 -33 -24
-39 -24 -5 0 -7 -4 -4 -10 3 -5 1 -10 -6 -10 -13 0 -262 -249 -324 -324 -56
-68 -172 -223 -204 -271 -14 -22 -28 -42 -31 -45 -10 -9 -174 -290 -176 -299
0 -4 -21 -49 -46 -101 -25 -52 -62 -133 -81 -180 -33 -81 -123 -353 -130 -395
-17 -103 -31 -136 -61 -150 -56 -25 -80 -28 -211 -31 -384 -8 -579 -75 -652
-223 -26 -53 -23 -140 6 -202 31 -64 192 -124 362 -133 19 -2 39 -5 45 -8 11
-6 509 -2 544 4 73 14 101 23 167 55 165 81 291 247 354 466 11 40 23 86 26
102 3 17 8 35 13 40 4 6 10 24 14 40 7 30 46 138 73 205 30 73 137 285 145
288 4 2 8 8 8 13 0 5 12 28 27 52 43 68 77 121 86 132 4 6 31 42 59 80 125
168 298 345 468 478 54 43 225 159 260 177 14 7 27 16 30 20 16 21 405 200
465 214 6 1 42 12 81 24 86 27 215 59 268 66 21 4 48 8 60 11 243 52 664 43
931 -20 6 -1 24 -5 40 -9 186 -44 429 -136 603 -228 42 -22 140 -82 216 -133
l139 -93 76 62 c82 66 103 83 131 106 10 8 35 29 56 45 105 82 190 150 194
156 3 3 13 10 24 16 16 9 10 17 -55 69 -41 32 -76 61 -79 65 -3 3 -36 27 -75
54 -38 27 -71 53 -73 57 -2 5 -8 8 -14 8 -5 0 -24 11 -42 25 -18 14 -38 25
-44 25 -7 0 -12 5 -12 10 0 6 -6 10 -12 10 -7 0 -33 14 -58 31 -49 33 -292
154 -380 189 -119 47 -239 88 -244 82 -3 -3 -6 0 -6 6 0 7 -3 11 -7 10 -7 -2
-69 12 -121 28 -7 2 -14 4 -17 4 -3 1 -19 6 -37 11 -18 5 -44 11 -58 14 -14 3
-35 7 -47 10 -47 10 -59 13 -103 20 -25 4 -52 9 -60 10 -14 2 -91 13 -165 22
-44 5 -501 13 -506 9z"/>
<path d="M7568 8825 c-2 -2 -37 -6 -78 -9 -42 -4 -87 -8 -100 -11 -14 -3 -43
-7 -65 -10 -35 -4 -159 -26 -220 -39 -279 -60 -610 -192 -885 -353 -86 -51
-248 -158 -260 -173 -3 -3 -17 -13 -32 -23 -150 -95 -523 -471 -643 -648 -17
-24 -38 -53 -47 -63 -10 -11 -20 -28 -24 -38 -3 -10 -10 -18 -15 -18 -5 0 -9
-5 -9 -11 0 -6 -11 -25 -25 -43 -14 -18 -25 -38 -25 -44 0 -6 -4 -12 -8 -14
-9 -4 -85 -137 -128 -223 -16 -33 -32 -61 -36 -63 -5 -2 -8 -10 -8 -17 0 -7
-9 -30 -19 -52 -20 -40 -33 -75 -31 -82 1 -2 -2 -7 -7 -10 -25 -17 -151 -402
-179 -546 -2 -11 -6 -31 -9 -45 -9 -44 -15 -74 -21 -109 -3 -18 -8 -43 -10
-55 -3 -11 -7 -43 -10 -71 -2 -27 -7 -59 -9 -70 -30 -143 -24 -637 11 -860 13
-80 17 -107 40 -225 15 -78 94 -353 121 -420 3 -8 7 -22 9 -30 2 -8 8 -24 13
-37 6 -13 15 -33 20 -45 25 -61 70 -160 111 -246 l45 -94 110 88 c61 48 112
91 113 96 2 4 8 8 14 8 5 0 15 6 22 13 7 6 30 26 51 42 21 17 55 44 75 60 21
17 52 41 69 55 l32 26 -32 69 c-18 39 -33 72 -34 75 -1 3 -7 19 -14 35 -31 71
-80 215 -75 215 4 0 2 6 -4 13 -11 13 -66 216 -77 282 -7 41 -10 56 -19 115
-19 116 -30 268 -30 410 0 120 11 327 18 339 2 3 7 33 11 66 3 32 10 67 15 76
5 9 7 19 4 22 -5 4 40 203 53 237 3 8 7 21 9 29 4 21 34 113 43 136 5 11 15
36 21 55 16 44 34 86 77 177 18 40 33 77 33 83 0 5 3 10 8 10 4 0 16 19 27 43
11 23 39 72 62 110 24 37 43 71 43 76 0 5 3 11 8 13 4 2 21 23 37 48 17 24 35
51 42 60 113 144 166 204 267 305 133 132 137 136 263 231 49 36 95 71 103 78
9 7 22 16 30 20 25 12 57 31 71 43 34 26 217 122 235 123 6 0 17 7 24 15 7 8
16 12 21 9 5 -3 9 0 9 7 0 7 3 9 7 6 3 -4 11 -3 17 2 6 4 25 13 41 19 17 5 67
24 113 41 123 45 308 95 397 106 17 2 46 6 65 10 19 3 57 8 85 11 27 3 64 7
80 9 42 5 309 6 370 1 78 -7 168 -16 195 -22 14 -2 41 -7 60 -9 52 -8 192 -41
265 -63 149 -44 454 -167 475 -191 3 -3 19 -13 35 -21 100 -49 324 -203 397
-272 10 -10 20 -18 22 -18 3 0 51 -44 107 -97 l101 -98 374 -1 c206 0 374 2
374 5 0 3 -25 38 -55 76 -31 39 -61 77 -68 85 -110 139 -136 169 -272 305
-109 110 -285 265 -300 265 -3 0 -16 9 -28 21 -12 11 -69 51 -127 90 -58 38
-110 73 -116 77 -61 42 -287 157 -429 218 -83 35 -240 89 -352 119 -201 55
-313 76 -538 101 -57 7 -492 14 -497 9z"/>
<path d="M6694 7698 c-16 -13 -36 -28 -44 -35 -8 -7 -67 -53 -130 -103 -63
-50 -122 -97 -130 -103 -8 -7 -43 -34 -77 -60 -34 -26 -65 -52 -68 -57 -3 -6
1 -22 9 -37 39 -73 151 -361 148 -383 0 -3 4 -12 9 -21 4 -9 10 -28 13 -43 3
-15 10 -42 15 -59 6 -18 12 -43 15 -57 3 -14 10 -50 16 -80 7 -30 13 -64 15
-75 2 -11 6 -39 9 -62 4 -23 9 -57 12 -75 3 -18 6 -65 8 -105 3 -40 6 -76 8
-80 5 -11 1 -259 -5 -357 -6 -73 -14 -144 -23 -191 -3 -11 -7 -40 -10 -65 -3
-24 -7 -47 -9 -51 -2 -3 -7 -21 -10 -40 -3 -19 -13 -61 -21 -94 -9 -33 -17
-67 -19 -75 -6 -27 -57 -184 -70 -215 -61 -146 -96 -222 -134 -295 -24 -47
-49 -95 -55 -107 -6 -13 -14 -23 -18 -23 -5 0 -8 -5 -8 -11 0 -17 -143 -223
-218 -314 -116 -140 -326 -340 -467 -443 -57 -41 -116 -82 -120 -82 -2 0 -24
-13 -48 -30 -24 -16 -66 -41 -93 -55 -27 -14 -56 -30 -64 -35 -14 -9 -163 -81
-167 -81 -2 0 -17 -6 -35 -13 -18 -7 -42 -17 -53 -21 -11 -4 -24 -9 -30 -11
-5 -2 -43 -14 -84 -29 -102 -35 -259 -75 -361 -91 -19 -3 -46 -7 -60 -10 -110
-20 -469 -26 -615 -10 -44 5 -89 10 -100 11 -11 1 -45 7 -75 13 -30 6 -66 14
-80 16 -103 20 -365 100 -389 120 -8 6 -16 10 -18 9 -12 -9 -333 150 -390 193
-17 13 -34 24 -38 24 -6 0 -186 128 -195 139 -3 3 -26 23 -51 43 -26 21 -89
78 -140 127 l-94 90 -372 0 c-205 0 -373 -4 -373 -7 0 -4 11 -20 25 -37 13
-16 56 -70 95 -120 147 -186 287 -334 440 -466 41 -35 76 -67 78 -71 2 -5 8
-8 13 -8 8 0 32 -18 63 -45 16 -16 228 -160 246 -168 8 -4 33 -18 55 -32 36
-22 320 -165 370 -186 158 -67 417 -146 585 -178 106 -20 114 -22 218 -36 59
-9 139 -15 250 -20 57 -3 108 -7 112 -10 5 -3 11 -1 15 5 4 7 12 7 24 0 10 -5
21 -7 24 -3 4 3 52 7 109 9 57 2 121 6 143 8 103 11 160 18 165 21 3 2 28 6
56 10 41 5 165 32 314 70 250 62 618 232 871 403 39 26 78 52 87 57 10 6 19
12 22 15 3 3 34 28 70 55 36 27 72 56 81 64 8 9 35 32 59 51 77 62 253 241
360 366 180 209 409 587 500 826 11 29 25 62 30 73 16 33 71 188 76 215 3 14
12 45 20 70 9 25 25 83 36 130 21 88 24 101 34 160 4 19 8 44 10 55 71 374 63
875 -20 1260 -2 11 -10 43 -16 70 -6 28 -13 57 -15 66 -27 131 -138 432 -226
616 -29 59 -53 111 -53 115 -2 18 -16 16 -42 -4z"/>
<path d="M10828 5505 c-2 -2 -21 -4 -43 -6 -22 -1 -44 -5 -50 -8 -5 -3 -18 -7
-28 -8 -66 -11 -202 -94 -270 -168 -72 -76 -169 -259 -183 -344 -5 -29 -60
-215 -73 -246 -5 -11 -19 -47 -31 -80 -33 -87 -149 -328 -161 -336 -6 -3 -11
-10 -11 -15 -1 -5 -12 -27 -26 -49 -13 -22 -36 -59 -51 -82 -14 -24 -29 -43
-33 -43 -5 0 -8 -4 -8 -10 0 -16 -86 -128 -175 -228 -270 -304 -563 -513 -960
-687 -41 -18 -206 -76 -229 -81 -10 -2 -33 -8 -51 -14 -18 -6 -41 -12 -51 -15
-10 -2 -50 -11 -89 -21 -38 -9 -83 -18 -100 -20 -16 -1 -41 -5 -55 -8 -159
-33 -580 -39 -705 -10 -11 2 -33 6 -50 8 -27 3 -117 19 -170 30 -70 15 -274
76 -320 96 -11 5 -49 21 -85 36 -116 47 -352 169 -358 186 -2 4 -8 8 -13 8 -9
0 -65 36 -79 50 -3 3 -31 23 -62 44 -63 43 -66 43 -131 -18 -15 -14 -30 -26
-33 -26 -3 0 -11 -6 -18 -12 -7 -7 -30 -26 -51 -43 -21 -16 -75 -59 -120 -95
-45 -36 -98 -78 -119 -95 -21 -16 -49 -39 -63 -51 l-24 -21 58 -43 c63 -48 63
-48 108 -85 46 -38 233 -165 244 -165 5 0 11 -3 13 -8 7 -16 344 -194 363
-192 3 0 20 -7 38 -17 17 -9 35 -17 39 -18 3 0 10 -3 14 -7 4 -5 14 -8 22 -8
8 0 28 -6 45 -14 35 -15 99 -40 107 -42 3 0 12 -3 20 -6 36 -13 151 -46 185
-54 6 -1 40 -9 78 -18 37 -9 82 -18 100 -21 17 -3 39 -8 47 -10 20 -6 64 -13
125 -20 28 -3 66 -9 85 -13 45 -8 622 -8 675 1 22 3 58 8 80 11 66 9 119 17
135 21 8 2 31 7 50 10 19 3 43 8 52 11 9 3 25 6 35 8 148 30 508 153 608 209
11 6 22 12 25 12 10 2 125 60 130 66 3 3 30 19 60 34 51 27 248 152 260 165 3
3 28 21 55 40 28 19 55 39 61 45 6 5 26 21 44 35 97 73 231 200 362 341 136
146 317 398 431 598 66 117 161 326 214 471 43 116 112 357 119 409 2 13 9 28
16 33 37 24 127 38 273 44 214 9 205 8 205 15 0 3 10 5 22 4 23 -2 46 3 145
32 57 16 67 15 70 -5 1 -8 7 -46 14 -85 l13 -71 15 34 c8 19 16 43 18 54 2 10
9 30 17 45 7 14 24 53 37 86 12 33 34 78 47 99 19 30 25 55 26 101 1 53 -3 68
-28 104 -46 66 -140 110 -271 127 -22 3 -53 7 -70 10 -32 6 -552 14 -557 9z"/>
</g>
</svg>
