<svg xmlns="http://www.w3.org/2000/svg" viewBox="0 0 147.17 87.67"><defs><style>.cls-1{stroke:#000;}.cls-1,.cls-2{stroke-miterlimit:10;stroke-width:3px;}.cls-2{fill:#00a692;stroke:#00a692;}</style></defs><title>Asset 2</title><g id="Layer_2" data-name="Layer 2"><g id="Layer_7" data-name="Layer 7"><path class="cls-1" d="M97.36,8.38C76.51,8.38,59.6,25.79,59.6,47.27a39.75,39.75,0,0,0,3.94,17.32l3.7-2.94A34.93,34.93,0,0,1,64,46.88C64,28,78.9,12.6,97.29,12.6a32.72,32.72,0,0,1,23.49,10h5.77A37.29,37.29,0,0,0,97.36,8.38Z"/><path class="cls-1" d="M138.08,54a6.45,6.45,0,0,0-2.18.33c-.78.26-1.58.7-1.67,1.43-3.74,17.42-18.82,30.46-36.87,30.46a36.9,36.9,0,0,1-23-8l3.9-3.1a32.51,32.51,0,0,0,19,6.13,33.8,33.8,0,0,0,32.45-25.46s1.12-6,6.65-5.84h.41c1.29-.06,8.54-.22,8.83,1.35C145.63,51.22,146.61,54,138.08,54Z"/><path class="cls-2" d="M49.8,79.29c20.86,0,37.76-17.42,37.76-38.9a39.67,39.67,0,0,0-3.94-17.31L79.93,26a35.06,35.06,0,0,1,3.23,14.76c0,18.94-14.9,34.29-33.28,34.29a32.71,32.71,0,0,1-23.5-10H20.62A37.27,37.27,0,0,0,49.8,79.29Z"/><path class="cls-2" d="M9.09,33.72a6.45,6.45,0,0,0,2.18-.33c.78-.26,1.57-.7,1.66-1.43C16.67,14.53,31.76,1.5,49.8,1.5a36.92,36.92,0,0,1,23,8l-3.9,3.11a32.44,32.44,0,0,0-19-6.13A33.82,33.82,0,0,0,17.42,32s-1.12,6-6.65,5.84h-.4c-1.3.05-8.55.21-8.84-1.35C1.53,36.45.56,33.64,9.09,33.72Z"/></g></g></svg>